<?xml version="1.0" encoding="UTF-8" standalone="no"?>
<svg
   xmlns="http://www.w3.org/2000/svg"
   dc="http://purl.org/dc/elements/1.1/"
   cc="http://creativecommons.org/ns#"
   rdf="http://www.w3.org/1999/02/22-rdf-syntax-ns#"
   svg="http://www.w3.org/2000/svg"
   sodipodi="http://sodipodi.sourceforge.net/DTD/sodipodi-0.dtd"
   inkscape="http://www.inkscape.org/namespaces/inkscape"
   aria-hidden="true"
   focusable="false"
   data-prefix="fas"
   data-icon="dice-d6"
   class="svg-inline--fa fa-dice-d6 fa-w-14"
   role="img"
   viewBox="0 0 448 512"
   version="0.92.4 (5da689c313, 2019-01-14)"
   id="svg4"
   docname="chance-cube.svg"
   export-filename="C:\Users\bcoud\Pictures\logo512.png"
   export-xdpi="96"
   export-ydpi="96">
  <defs
     id="defs8">
    <path-effect
       effect="lattice2"
       gridpoint0="528.48585,184.24262"
       gridpoint1="661.80025,184.24262"
       gridpoint2="528.48585,322.19303"
       gridpoint3="661.80025,322.19303"
       gridpoint4="561.81445,184.24262"
       gridpoint5="628.47165,184.24262"
       gridpoint6="561.81445,322.19303"
       gridpoint7="628.47165,322.19303"
       gridpoint8x9="595.14305,184.24262"
       gridpoint10x11="595.14305,322.19303"
       gridpoint12="528.48585,218.73022"
       gridpoint13="661.80025,218.73022"
       gridpoint14="528.48585,287.70543"
       gridpoint15="661.80025,287.70543"
       gridpoint16="561.81445,218.73022"
       gridpoint17="628.47165,218.73022"
       gridpoint18="561.81445,287.70543"
       gridpoint19="628.47165,287.70543"
       gridpoint20x21="595.14305,218.73022"
       gridpoint22x23="595.14305,287.70543"
       gridpoint24x26="528.48585,253.21783"
       gridpoint25x27="661.80025,253.21783"
       gridpoint28x30="561.81445,253.21783"
       gridpoint29x31="628.47165,253.21783"
       gridpoint32x33x34x35="595.14305,253.21783"
       id="path-effect4591"
       is_visible="true"
       horizontal_mirror="false"
       vertical_mirror="false"
       live_update="true" />
  </defs>
  <namedview
     pagecolor="#ffffff"
     bordercolor="#666666"
     borderopacity="1"
     objecttolerance="10"
     gridtolerance="10"
     guidetolerance="10"
     pageopacity="0"
     pageshadow="2"
     window-width="1920"
     window-height="1017"
     id="namedview6"
     showgrid="false"
     zoom="0.4609375"
     cx="33.969997"
     cy="2.5983276"
     window-x="-8"
     window-y="-8"
     window-maximized="1"
     current-layer="svg4" />
  <path
     d="m 223.99414,-0.00585938 c -11.13,0 -22.25984,3.02617188 -32.21484,9.07617188 L 25.810547,109.94922 c -5.32,3.23 -5.291406,11.27094 0.05859,14.46094 L 224,242.55078 422.14062,124.41016 c 5.35001,-3.19 5.37883,-11.22094 0.0488,-14.46094 L 256.21094,9.0703125 c -9.955,-6.05 -21.0868,-9.07617188 -32.2168,-9.07617188 z M 7.8515625,153.4707 C 3.7354687,153.56023 0,157.02258 0,161.83008 V 359.5293 c 0,23.77 12.109062,45.74117 31.789062,57.70117 L 183.94922,509.69922 C 194.61922,516.17922 208,508.15953 208,495.26953 V 271.46094 L 11.970703,154.58008 c -1.3325,-0.795 -2.7471093,-1.13922 -4.1191405,-1.10938 z m 432.2968775,0 c -1.37203,-0.0298 -2.78664,0.31438 -4.11914,1.10938 L 240,271.46094 V 495.2793 c 0,12.88 13.39078,20.91164 24.05078,14.43164 L 416.21094,417.23047 C 435.89094,405.27047 448,383.2893 448,359.5293 V 161.83008 c 0,-4.8075 -3.73547,-8.26985 -7.85156,-8.35938 z M 44.933594,257.78516 c 0.03835,-0.0317 10.101571,11.48718 22.363281,25.5957 12.26163,14.10848 22.361798,25.5707 22.445313,25.47266 0.08351,-0.098 2.084992,-8.6455 4.447265,-18.99414 2.36235,-10.3486 4.377063,-18.59776 4.476563,-18.33204 0.0996,0.26578 2.827254,10.36548 6.060544,22.44336 3.23319,12.07783 5.96766,22.11857 6.07813,22.31446 0.11049,0.19589 6.9523,2.2972 15.20312,4.66796 8.25089,2.37082 15.04519,4.38715 15.09961,4.48243 0.0539,0.095 -3.96417,4.4195 -8.93164,9.60742 -7.52636,7.86048 -8.9691,9.53582 -8.6582,10.06055 0.20512,0.34627 6.00671,7.95845 12.89453,16.91406 6.88782,8.95561 12.41127,16.25322 12.27344,16.2168 -0.13783,-0.0364 -6.65096,-2.75849 -14.47266,-6.04688 -7.82178,-3.28843 -14.25944,-5.95865 -14.30664,-5.93555 -0.0476,0.0229 1.2216,9.78189 2.81836,21.6875 1.59684,11.90566 2.85102,21.67642 2.78711,21.71289 -0.0638,0.0366 -6.44885,-9.91473 -13.1875,-22.66601 l -13.070314,-22.73242 -8.623047,5.20312 c -4.742855,2.86215 -10.834669,6.49886 -13.537109,8.08008 -4.551775,2.66345 -4.902441,2.80067 -4.769531,1.85937 0.07899,-0.55879 1.333264,-9.30383 2.787109,-19.43164 1.45384,-10.12782 2.609764,-18.47811 2.56836,-18.55664 -0.04145,-0.0786 -6.580821,-5.30932 -14.53125,-11.625 -7.95043,-6.31569 -14.495672,-11.55437 -14.544922,-11.64062 -0.0493,-0.0863 6.280276,-0.29207 14.066406,-0.45899 7.786055,-0.16697 14.151078,-0.38215 14.142578,-0.47656 -0.0084,-0.0944 -7.200687,-13.4896 -15.982422,-29.76758 -8.781745,-16.27798 -15.935129,-29.62264 -15.896484,-29.65429 z m 361.453126,-0.71485 c 0,0.0458 -1.39397,2.20174 -3.0957,4.79102 -11.59283,17.63919 -21.93844,36.84248 -29.91602,55.52539 -10.72235,25.11093 -17.49249,49.01872 -20.71484,73.1543 -0.43777,3.2789 -0.80398,6.41863 -0.81446,6.97656 -0.0495,2.6324 -0.44019,2.22734 -0.75976,-0.78711 -1.83564,-17.31571 -8.12005,-35.18986 -16.58399,-47.16602 -9.19347,-13.00843 -22.79144,-22.60888 -37.29492,-26.33203 -0.51953,-0.13336 0.62424,-0.40048 3.16211,-0.73633 9.77511,-1.29351 19.89504,-4.04062 30.15039,-8.1875 12.93544,-5.23063 28.89614,-14.82947 42.30859,-25.4414 10.18577,-8.05899 21.93188,-19.08334 31.1836,-29.26758 1.30539,-1.43696 2.375,-2.57509 2.375,-2.5293 z M 77.044922,304.36133 c -0.0058,0.009 -0.0029,0.0275 0.0039,0.0527 0.0492,0.1837 2.543824,4.88383 5.542969,10.44532 2.99921,5.56153 5.733042,10.66304 6.076172,11.33789 l 0.623047,1.22851 -8.357422,0.1211 c -4.59689,0.0667 -8.31885,0.18848 -8.271485,0.27148 0.04765,0.0832 3.38023,2.71745 7.40625,5.85352 4.026085,3.13612 7.352894,5.75638 7.392579,5.82226 0.05549,0.0917 -2.019338,15.34346 -2.585938,19.01563 -0.05518,0.35665 -0.02506,0.68792 0.06641,0.73632 0.0911,0.0485 3.310512,-1.84387 7.154297,-4.20312 l 6.988281,-4.28906 6.843748,11.98242 c 3.76331,6.59011 6.91154,12.02341 6.9961,12.07422 0.0845,0.0508 -0.52461,-4.88236 -1.35156,-10.96289 -0.82696,-6.08052 -1.44721,-11.08803 -1.37891,-11.12696 0.0683,-0.0389 3.48725,1.34762 7.59766,3.08008 4.1104,1.73247 7.5323,3.11488 7.60351,3.07422 0.14981,-0.0855 -0.10537,-0.42257 -7.55859,-10.08398 -3.07445,-3.9853 -5.75768,-7.52284 -5.96289,-7.86133 -0.30879,-0.50925 0.48981,-1.52699 4.61718,-5.89063 2.74387,-2.90084 4.95166,-5.34034 4.90625,-5.41992 -0.0454,-0.0795 -3.60397,-1.12974 -7.90625,-2.33594 -4.30236,-1.20625 -7.90411,-2.34977 -8.0039,-2.53906 -0.0999,-0.18934 -1.27581,-4.47323 -2.61328,-9.52148 -1.33747,-5.04826 -2.5289,-9.44526 -2.64844,-9.76954 -0.15458,-0.4193 -0.2972,-0.27708 -0.49219,0.49219 -0.32195,1.27005 -4.172392,17.6386 -4.357422,18.52344 -0.11843,0.56634 -0.584405,0.0748 -7.548828,-7.95117 C 78.831387,306.15174 77.132596,304.22873 77.04492,304.3613 Z"
     id="path2" />
</svg>
